M48
;DRILL file {KiCad 4.0.1-2.fc23-product} date Thu 03 Mar 2016 02:57:10 PM EST
;FORMAT={-:-/ absolute / inch / decimal}
FMAT,2
INCH,TZ
T1C0.028
T2C0.031
T3C0.035
T4C0.039
T5C0.039
T6C0.040
T7C0.045
T8C0.087
%
G90
G05
M72
T1
X6.609Y-3.9786
X7.009Y-3.9786
T2
X5.63Y-4.04
X5.7087Y-4.04
X5.9413Y-3.94
X6.02Y-3.94
X6.0965Y-4.134
X6.0965Y-4.434
X6.1965Y-4.134
X6.1965Y-4.434
X6.2965Y-4.134
X6.2965Y-4.434
X6.3965Y-4.134
X6.3965Y-4.434
T3
X6.75Y-4.55
X6.75Y-4.7469
X7.Y-4.55
X7.Y-4.7469
T4
X6.7651Y-3.6061
X6.8635Y-3.6061
X6.9619Y-3.6061
T5
X5.1615Y-3.88
X5.3465Y-3.7619
X5.3465Y-3.9981
X6.25Y-3.75
X6.45Y-3.75
X6.825Y-4.375
X7.025Y-4.375
T6
X5.2365Y-4.294
X5.2365Y-4.394
X5.2365Y-4.494
T7
X5.76Y-3.68
X5.86Y-3.68
X5.96Y-3.68
T8
X6.6666Y-3.736
X7.0604Y-3.736
T0
M30
