G04 #@! TF.FileFunction,Copper,L1,Top,Signal*
%FSLAX46Y46*%
G04 Gerber Fmt 4.6, Leading zero omitted, Abs format (unit mm)*
G04 Created by KiCad (PCBNEW 4.0.1-2.fc23-product) date Thu 03 Mar 2016 02:56:58 PM EST*
%MOMM*%
G01*
G04 APERTURE LIST*
%ADD10C,0.100000*%
%ADD11O,1.600000X1.600000*%
%ADD12R,3.500120X3.500120*%
%ADD13C,1.699260*%
%ADD14R,1.699260X1.699260*%
%ADD15R,2.032000X1.727200*%
%ADD16O,2.032000X1.727200*%
%ADD17C,1.500000*%
%ADD18R,2.200000X2.200000*%
%ADD19O,1.501140X2.499360*%
%ADD20R,1.400000X1.400000*%
%ADD21C,1.400000*%
%ADD22R,1.300000X1.300000*%
%ADD23C,1.300000*%
%ADD24O,2.032000X2.540000*%
%ADD25C,0.250000*%
%ADD26C,0.254000*%
G04 APERTURE END LIST*
D10*
D11*
X154851100Y-112623600D03*
X157391100Y-112623600D03*
X159931100Y-112623600D03*
X162471100Y-112623600D03*
X162471100Y-105003600D03*
X159931100Y-105003600D03*
X157391100Y-105003600D03*
X154851100Y-105003600D03*
D12*
X135801100Y-101551740D03*
X135801100Y-95552260D03*
X131102100Y-98552000D03*
D13*
X167868080Y-101056440D03*
D14*
X178028080Y-101056440D03*
D15*
X133007100Y-109067600D03*
D16*
X133007100Y-111607600D03*
X133007100Y-114147600D03*
D17*
X176832900Y-91594400D03*
X174332900Y-91594400D03*
X171832900Y-91594400D03*
D18*
X169332900Y-94894400D03*
X179332900Y-94894400D03*
D19*
X158750000Y-95250000D03*
X163830000Y-95250000D03*
X173355000Y-111125000D03*
X178435000Y-111125000D03*
D20*
X171450000Y-115570000D03*
D21*
X171450000Y-120570000D03*
D20*
X177800000Y-115570000D03*
D21*
X177800000Y-120570000D03*
D22*
X143002000Y-102616000D03*
D23*
X145002000Y-102616000D03*
D22*
X152908000Y-100076000D03*
D23*
X150908000Y-100076000D03*
D24*
X148844000Y-93472000D03*
X151384000Y-93472000D03*
X146304000Y-93472000D03*
D25*
X178028080Y-110718080D02*
X178435000Y-111125000D01*
D26*
G36*
X144827276Y-92468857D02*
X144653000Y-93091000D01*
X144653000Y-93345000D01*
X146177000Y-93345000D01*
X146177000Y-93325000D01*
X146431000Y-93325000D01*
X146431000Y-93345000D01*
X146451000Y-93345000D01*
X146451000Y-93599000D01*
X146431000Y-93599000D01*
X146431000Y-95212836D01*
X146686944Y-95331975D01*
X146818477Y-95299926D01*
X147193000Y-95089312D01*
X147193000Y-95705394D01*
X143674197Y-99224197D01*
X143646334Y-99266211D01*
X143637000Y-99314000D01*
X143637000Y-101331000D01*
X143287750Y-101331000D01*
X143129000Y-101489750D01*
X143129000Y-102489000D01*
X143149000Y-102489000D01*
X143149000Y-102743000D01*
X143129000Y-102743000D01*
X143129000Y-102763000D01*
X142875000Y-102763000D01*
X142875000Y-102743000D01*
X141875750Y-102743000D01*
X141717000Y-102901750D01*
X141717000Y-103251000D01*
X138186160Y-103251000D01*
X138186160Y-101839690D01*
X141717000Y-101839690D01*
X141717000Y-102330250D01*
X141875750Y-102489000D01*
X142875000Y-102489000D01*
X142875000Y-101489750D01*
X142716250Y-101331000D01*
X142225691Y-101331000D01*
X141992302Y-101427673D01*
X141813673Y-101606301D01*
X141717000Y-101839690D01*
X138186160Y-101839690D01*
X138186160Y-101837490D01*
X138027410Y-101678740D01*
X135928100Y-101678740D01*
X135928100Y-101698740D01*
X135674100Y-101698740D01*
X135674100Y-101678740D01*
X135654100Y-101678740D01*
X135654100Y-101424740D01*
X135674100Y-101424740D01*
X135674100Y-101404740D01*
X135928100Y-101404740D01*
X135928100Y-101424740D01*
X138027410Y-101424740D01*
X138186160Y-101265990D01*
X138186160Y-99695000D01*
X141224000Y-99695000D01*
X141273410Y-99684994D01*
X141315035Y-99656553D01*
X141342315Y-99614159D01*
X141351000Y-99568000D01*
X141351000Y-93599000D01*
X144653000Y-93599000D01*
X144653000Y-93853000D01*
X144827276Y-94475143D01*
X145226370Y-94983236D01*
X145789523Y-95299926D01*
X145921056Y-95331975D01*
X146177000Y-95212836D01*
X146177000Y-93599000D01*
X144653000Y-93599000D01*
X141351000Y-93599000D01*
X141351000Y-92329000D01*
X144937130Y-92329000D01*
X144827276Y-92468857D01*
X144827276Y-92468857D01*
G37*
X144827276Y-92468857D02*
X144653000Y-93091000D01*
X144653000Y-93345000D01*
X146177000Y-93345000D01*
X146177000Y-93325000D01*
X146431000Y-93325000D01*
X146431000Y-93345000D01*
X146451000Y-93345000D01*
X146451000Y-93599000D01*
X146431000Y-93599000D01*
X146431000Y-95212836D01*
X146686944Y-95331975D01*
X146818477Y-95299926D01*
X147193000Y-95089312D01*
X147193000Y-95705394D01*
X143674197Y-99224197D01*
X143646334Y-99266211D01*
X143637000Y-99314000D01*
X143637000Y-101331000D01*
X143287750Y-101331000D01*
X143129000Y-101489750D01*
X143129000Y-102489000D01*
X143149000Y-102489000D01*
X143149000Y-102743000D01*
X143129000Y-102743000D01*
X143129000Y-102763000D01*
X142875000Y-102763000D01*
X142875000Y-102743000D01*
X141875750Y-102743000D01*
X141717000Y-102901750D01*
X141717000Y-103251000D01*
X138186160Y-103251000D01*
X138186160Y-101839690D01*
X141717000Y-101839690D01*
X141717000Y-102330250D01*
X141875750Y-102489000D01*
X142875000Y-102489000D01*
X142875000Y-101489750D01*
X142716250Y-101331000D01*
X142225691Y-101331000D01*
X141992302Y-101427673D01*
X141813673Y-101606301D01*
X141717000Y-101839690D01*
X138186160Y-101839690D01*
X138186160Y-101837490D01*
X138027410Y-101678740D01*
X135928100Y-101678740D01*
X135928100Y-101698740D01*
X135674100Y-101698740D01*
X135674100Y-101678740D01*
X135654100Y-101678740D01*
X135654100Y-101424740D01*
X135674100Y-101424740D01*
X135674100Y-101404740D01*
X135928100Y-101404740D01*
X135928100Y-101424740D01*
X138027410Y-101424740D01*
X138186160Y-101265990D01*
X138186160Y-99695000D01*
X141224000Y-99695000D01*
X141273410Y-99684994D01*
X141315035Y-99656553D01*
X141342315Y-99614159D01*
X141351000Y-99568000D01*
X141351000Y-93599000D01*
X144653000Y-93599000D01*
X144653000Y-93853000D01*
X144827276Y-94475143D01*
X145226370Y-94983236D01*
X145789523Y-95299926D01*
X145921056Y-95331975D01*
X146177000Y-95212836D01*
X146177000Y-93599000D01*
X144653000Y-93599000D01*
X141351000Y-93599000D01*
X141351000Y-92329000D01*
X144937130Y-92329000D01*
X144827276Y-92468857D01*
G36*
X159639000Y-93680829D02*
X159162903Y-93422190D01*
X159091275Y-93408007D01*
X158877000Y-93530661D01*
X158877000Y-95123000D01*
X158897000Y-95123000D01*
X158897000Y-95377000D01*
X158877000Y-95377000D01*
X158877000Y-96969339D01*
X159091275Y-97091993D01*
X159162903Y-97077810D01*
X159639000Y-96819171D01*
X159639000Y-103598589D01*
X159381949Y-103649720D01*
X158916402Y-103960789D01*
X158661100Y-104342875D01*
X158405798Y-103960789D01*
X157940251Y-103649720D01*
X157391100Y-103540487D01*
X156841949Y-103649720D01*
X156376402Y-103960789D01*
X156106114Y-104365303D01*
X156003489Y-104148466D01*
X155588523Y-103772559D01*
X155200139Y-103611696D01*
X154978100Y-103733685D01*
X154978100Y-104876600D01*
X154998100Y-104876600D01*
X154998100Y-105130600D01*
X154978100Y-105130600D01*
X154978100Y-106273515D01*
X155200139Y-106395504D01*
X155588523Y-106234641D01*
X156003489Y-105858734D01*
X156106114Y-105641897D01*
X156376402Y-106046411D01*
X156841949Y-106357480D01*
X157391100Y-106466713D01*
X157940251Y-106357480D01*
X158405798Y-106046411D01*
X158661100Y-105664325D01*
X158916402Y-106046411D01*
X159381949Y-106357480D01*
X159931100Y-106466713D01*
X160313119Y-106390725D01*
X164211000Y-110288606D01*
X164211000Y-113411000D01*
X163655546Y-113411000D01*
X163863014Y-112972641D01*
X163741729Y-112750600D01*
X162598100Y-112750600D01*
X162598100Y-112770600D01*
X162344100Y-112770600D01*
X162344100Y-112750600D01*
X162324100Y-112750600D01*
X162324100Y-112496600D01*
X162344100Y-112496600D01*
X162344100Y-111353685D01*
X162598100Y-111353685D01*
X162598100Y-112496600D01*
X163741729Y-112496600D01*
X163863014Y-112274559D01*
X163623489Y-111768466D01*
X163208523Y-111392559D01*
X162820139Y-111231696D01*
X162598100Y-111353685D01*
X162344100Y-111353685D01*
X162122061Y-111231696D01*
X161733677Y-111392559D01*
X161671000Y-111449336D01*
X161671000Y-110490000D01*
X161660994Y-110440590D01*
X161633803Y-110400197D01*
X157823803Y-106590197D01*
X157781789Y-106562334D01*
X157734000Y-106553000D01*
X154178000Y-106553000D01*
X154128590Y-106563006D01*
X154088197Y-106590197D01*
X147775394Y-112903000D01*
X133974748Y-112903000D01*
X133942031Y-112881139D01*
X134357832Y-112509636D01*
X134611809Y-111982391D01*
X134614458Y-111966626D01*
X134493317Y-111734600D01*
X133134100Y-111734600D01*
X133134100Y-111754600D01*
X132880100Y-111754600D01*
X132880100Y-111734600D01*
X131520883Y-111734600D01*
X131399742Y-111966626D01*
X131402391Y-111982391D01*
X131656368Y-112509636D01*
X132072169Y-112881139D01*
X132039452Y-112903000D01*
X131191000Y-112903000D01*
X131191000Y-110363000D01*
X131514371Y-110363000D01*
X131527010Y-110382641D01*
X131739210Y-110527631D01*
X131834027Y-110546832D01*
X131656368Y-110705564D01*
X131402391Y-111232809D01*
X131399742Y-111248574D01*
X131520883Y-111480600D01*
X132880100Y-111480600D01*
X132880100Y-111460600D01*
X133134100Y-111460600D01*
X133134100Y-111480600D01*
X134493317Y-111480600D01*
X134614458Y-111248574D01*
X134611809Y-111232809D01*
X134357832Y-110705564D01*
X134182255Y-110548693D01*
X134258417Y-110534362D01*
X134474541Y-110395290D01*
X134496604Y-110363000D01*
X142494000Y-110363000D01*
X142543410Y-110352994D01*
X142583803Y-110325803D01*
X147556965Y-105352641D01*
X153459186Y-105352641D01*
X153698711Y-105858734D01*
X154113677Y-106234641D01*
X154502061Y-106395504D01*
X154724100Y-106273515D01*
X154724100Y-105130600D01*
X153580471Y-105130600D01*
X153459186Y-105352641D01*
X147556965Y-105352641D01*
X148255047Y-104654559D01*
X153459186Y-104654559D01*
X153580471Y-104876600D01*
X154724100Y-104876600D01*
X154724100Y-103733685D01*
X154502061Y-103611696D01*
X154113677Y-103772559D01*
X153698711Y-104148466D01*
X153459186Y-104654559D01*
X148255047Y-104654559D01*
X150203803Y-102705803D01*
X150231666Y-102663789D01*
X150241000Y-102616000D01*
X150241000Y-101190415D01*
X150651276Y-101360777D01*
X151162481Y-101361223D01*
X151634943Y-101166005D01*
X151718420Y-101082674D01*
X151719673Y-101085699D01*
X151898302Y-101264327D01*
X152131691Y-101361000D01*
X152622250Y-101361000D01*
X152781000Y-101202250D01*
X152781000Y-100203000D01*
X153035000Y-100203000D01*
X153035000Y-101202250D01*
X153193750Y-101361000D01*
X153684309Y-101361000D01*
X153917698Y-101264327D01*
X154096327Y-101085699D01*
X154193000Y-100852310D01*
X154193000Y-100361750D01*
X154034250Y-100203000D01*
X153035000Y-100203000D01*
X152781000Y-100203000D01*
X152761000Y-100203000D01*
X152761000Y-99949000D01*
X152781000Y-99949000D01*
X152781000Y-98949750D01*
X153035000Y-98949750D01*
X153035000Y-99949000D01*
X154034250Y-99949000D01*
X154193000Y-99790250D01*
X154193000Y-99299690D01*
X154096327Y-99066301D01*
X153917698Y-98887673D01*
X153684309Y-98791000D01*
X153193750Y-98791000D01*
X153035000Y-98949750D01*
X152781000Y-98949750D01*
X152622250Y-98791000D01*
X152131691Y-98791000D01*
X151898302Y-98887673D01*
X151719673Y-99066301D01*
X151718520Y-99069083D01*
X151636845Y-98987265D01*
X151164724Y-98791223D01*
X150653519Y-98790777D01*
X150241000Y-98961227D01*
X150241000Y-95377000D01*
X157364430Y-95377000D01*
X157364430Y-95876110D01*
X157518501Y-96396677D01*
X157860056Y-96818658D01*
X158337097Y-97077810D01*
X158408725Y-97091993D01*
X158623000Y-96969339D01*
X158623000Y-95377000D01*
X157364430Y-95377000D01*
X150241000Y-95377000D01*
X150241000Y-94900012D01*
X150306370Y-94983236D01*
X150869523Y-95299926D01*
X151001056Y-95331975D01*
X151257000Y-95212836D01*
X151257000Y-93599000D01*
X151511000Y-93599000D01*
X151511000Y-95212836D01*
X151766944Y-95331975D01*
X151898477Y-95299926D01*
X152461630Y-94983236D01*
X152743887Y-94623890D01*
X157364430Y-94623890D01*
X157364430Y-95123000D01*
X158623000Y-95123000D01*
X158623000Y-93530661D01*
X158408725Y-93408007D01*
X158337097Y-93422190D01*
X157860056Y-93681342D01*
X157518501Y-94103323D01*
X157364430Y-94623890D01*
X152743887Y-94623890D01*
X152860724Y-94475143D01*
X153035000Y-93853000D01*
X153035000Y-93599000D01*
X151511000Y-93599000D01*
X151257000Y-93599000D01*
X151237000Y-93599000D01*
X151237000Y-93345000D01*
X151257000Y-93345000D01*
X151257000Y-93325000D01*
X151511000Y-93325000D01*
X151511000Y-93345000D01*
X153035000Y-93345000D01*
X153035000Y-93091000D01*
X152860724Y-92468857D01*
X152750870Y-92329000D01*
X159639000Y-92329000D01*
X159639000Y-93680829D01*
X159639000Y-93680829D01*
G37*
X159639000Y-93680829D02*
X159162903Y-93422190D01*
X159091275Y-93408007D01*
X158877000Y-93530661D01*
X158877000Y-95123000D01*
X158897000Y-95123000D01*
X158897000Y-95377000D01*
X158877000Y-95377000D01*
X158877000Y-96969339D01*
X159091275Y-97091993D01*
X159162903Y-97077810D01*
X159639000Y-96819171D01*
X159639000Y-103598589D01*
X159381949Y-103649720D01*
X158916402Y-103960789D01*
X158661100Y-104342875D01*
X158405798Y-103960789D01*
X157940251Y-103649720D01*
X157391100Y-103540487D01*
X156841949Y-103649720D01*
X156376402Y-103960789D01*
X156106114Y-104365303D01*
X156003489Y-104148466D01*
X155588523Y-103772559D01*
X155200139Y-103611696D01*
X154978100Y-103733685D01*
X154978100Y-104876600D01*
X154998100Y-104876600D01*
X154998100Y-105130600D01*
X154978100Y-105130600D01*
X154978100Y-106273515D01*
X155200139Y-106395504D01*
X155588523Y-106234641D01*
X156003489Y-105858734D01*
X156106114Y-105641897D01*
X156376402Y-106046411D01*
X156841949Y-106357480D01*
X157391100Y-106466713D01*
X157940251Y-106357480D01*
X158405798Y-106046411D01*
X158661100Y-105664325D01*
X158916402Y-106046411D01*
X159381949Y-106357480D01*
X159931100Y-106466713D01*
X160313119Y-106390725D01*
X164211000Y-110288606D01*
X164211000Y-113411000D01*
X163655546Y-113411000D01*
X163863014Y-112972641D01*
X163741729Y-112750600D01*
X162598100Y-112750600D01*
X162598100Y-112770600D01*
X162344100Y-112770600D01*
X162344100Y-112750600D01*
X162324100Y-112750600D01*
X162324100Y-112496600D01*
X162344100Y-112496600D01*
X162344100Y-111353685D01*
X162598100Y-111353685D01*
X162598100Y-112496600D01*
X163741729Y-112496600D01*
X163863014Y-112274559D01*
X163623489Y-111768466D01*
X163208523Y-111392559D01*
X162820139Y-111231696D01*
X162598100Y-111353685D01*
X162344100Y-111353685D01*
X162122061Y-111231696D01*
X161733677Y-111392559D01*
X161671000Y-111449336D01*
X161671000Y-110490000D01*
X161660994Y-110440590D01*
X161633803Y-110400197D01*
X157823803Y-106590197D01*
X157781789Y-106562334D01*
X157734000Y-106553000D01*
X154178000Y-106553000D01*
X154128590Y-106563006D01*
X154088197Y-106590197D01*
X147775394Y-112903000D01*
X133974748Y-112903000D01*
X133942031Y-112881139D01*
X134357832Y-112509636D01*
X134611809Y-111982391D01*
X134614458Y-111966626D01*
X134493317Y-111734600D01*
X133134100Y-111734600D01*
X133134100Y-111754600D01*
X132880100Y-111754600D01*
X132880100Y-111734600D01*
X131520883Y-111734600D01*
X131399742Y-111966626D01*
X131402391Y-111982391D01*
X131656368Y-112509636D01*
X132072169Y-112881139D01*
X132039452Y-112903000D01*
X131191000Y-112903000D01*
X131191000Y-110363000D01*
X131514371Y-110363000D01*
X131527010Y-110382641D01*
X131739210Y-110527631D01*
X131834027Y-110546832D01*
X131656368Y-110705564D01*
X131402391Y-111232809D01*
X131399742Y-111248574D01*
X131520883Y-111480600D01*
X132880100Y-111480600D01*
X132880100Y-111460600D01*
X133134100Y-111460600D01*
X133134100Y-111480600D01*
X134493317Y-111480600D01*
X134614458Y-111248574D01*
X134611809Y-111232809D01*
X134357832Y-110705564D01*
X134182255Y-110548693D01*
X134258417Y-110534362D01*
X134474541Y-110395290D01*
X134496604Y-110363000D01*
X142494000Y-110363000D01*
X142543410Y-110352994D01*
X142583803Y-110325803D01*
X147556965Y-105352641D01*
X153459186Y-105352641D01*
X153698711Y-105858734D01*
X154113677Y-106234641D01*
X154502061Y-106395504D01*
X154724100Y-106273515D01*
X154724100Y-105130600D01*
X153580471Y-105130600D01*
X153459186Y-105352641D01*
X147556965Y-105352641D01*
X148255047Y-104654559D01*
X153459186Y-104654559D01*
X153580471Y-104876600D01*
X154724100Y-104876600D01*
X154724100Y-103733685D01*
X154502061Y-103611696D01*
X154113677Y-103772559D01*
X153698711Y-104148466D01*
X153459186Y-104654559D01*
X148255047Y-104654559D01*
X150203803Y-102705803D01*
X150231666Y-102663789D01*
X150241000Y-102616000D01*
X150241000Y-101190415D01*
X150651276Y-101360777D01*
X151162481Y-101361223D01*
X151634943Y-101166005D01*
X151718420Y-101082674D01*
X151719673Y-101085699D01*
X151898302Y-101264327D01*
X152131691Y-101361000D01*
X152622250Y-101361000D01*
X152781000Y-101202250D01*
X152781000Y-100203000D01*
X153035000Y-100203000D01*
X153035000Y-101202250D01*
X153193750Y-101361000D01*
X153684309Y-101361000D01*
X153917698Y-101264327D01*
X154096327Y-101085699D01*
X154193000Y-100852310D01*
X154193000Y-100361750D01*
X154034250Y-100203000D01*
X153035000Y-100203000D01*
X152781000Y-100203000D01*
X152761000Y-100203000D01*
X152761000Y-99949000D01*
X152781000Y-99949000D01*
X152781000Y-98949750D01*
X153035000Y-98949750D01*
X153035000Y-99949000D01*
X154034250Y-99949000D01*
X154193000Y-99790250D01*
X154193000Y-99299690D01*
X154096327Y-99066301D01*
X153917698Y-98887673D01*
X153684309Y-98791000D01*
X153193750Y-98791000D01*
X153035000Y-98949750D01*
X152781000Y-98949750D01*
X152622250Y-98791000D01*
X152131691Y-98791000D01*
X151898302Y-98887673D01*
X151719673Y-99066301D01*
X151718520Y-99069083D01*
X151636845Y-98987265D01*
X151164724Y-98791223D01*
X150653519Y-98790777D01*
X150241000Y-98961227D01*
X150241000Y-95377000D01*
X157364430Y-95377000D01*
X157364430Y-95876110D01*
X157518501Y-96396677D01*
X157860056Y-96818658D01*
X158337097Y-97077810D01*
X158408725Y-97091993D01*
X158623000Y-96969339D01*
X158623000Y-95377000D01*
X157364430Y-95377000D01*
X150241000Y-95377000D01*
X150241000Y-94900012D01*
X150306370Y-94983236D01*
X150869523Y-95299926D01*
X151001056Y-95331975D01*
X151257000Y-95212836D01*
X151257000Y-93599000D01*
X151511000Y-93599000D01*
X151511000Y-95212836D01*
X151766944Y-95331975D01*
X151898477Y-95299926D01*
X152461630Y-94983236D01*
X152743887Y-94623890D01*
X157364430Y-94623890D01*
X157364430Y-95123000D01*
X158623000Y-95123000D01*
X158623000Y-93530661D01*
X158408725Y-93408007D01*
X158337097Y-93422190D01*
X157860056Y-93681342D01*
X157518501Y-94103323D01*
X157364430Y-94623890D01*
X152743887Y-94623890D01*
X152860724Y-94475143D01*
X153035000Y-93853000D01*
X153035000Y-93599000D01*
X151511000Y-93599000D01*
X151257000Y-93599000D01*
X151237000Y-93599000D01*
X151237000Y-93345000D01*
X151257000Y-93345000D01*
X151257000Y-93325000D01*
X151511000Y-93325000D01*
X151511000Y-93345000D01*
X153035000Y-93345000D01*
X153035000Y-93091000D01*
X152860724Y-92468857D01*
X152750870Y-92329000D01*
X159639000Y-92329000D01*
X159639000Y-93680829D01*
M02*
