M48
;DRILL file {KiCad 4.0.1-2.fc23-product} date Fri 29 Jan 2016 03:23:41 PM EST
;FORMAT={2:4/ absolute / inch / keep zeros}
FMAT,2
INCH,TZ
T1C0.028
T2C0.028
T3C0.031
T4C0.039
T5C0.039
T6C0.040
T7C0.087
%
G90
G05
M72
T1
X067500Y-046500
X067500Y-047484
X070000Y-046500
X070000Y-047484
T2
X066090Y-039786
X070090Y-039786
T3
X060965Y-041340
X060965Y-044340
X061965Y-041340
X061965Y-044340
X062965Y-041340
X062965Y-044340
X063965Y-041340
X063965Y-044340
T4
X066551Y-037459
X067535Y-037459
X068519Y-037459
T5
X054044Y-037340
X055225Y-039190
X056406Y-037340
X060500Y-037500
X062500Y-037500
X068250Y-043750
X070250Y-043750
T6
X055465Y-041840
X055465Y-042840
X055465Y-043840
T7
X065566Y-036160
X069504Y-036160
T0
M30
