G04 #@! TF.FileFunction,Legend,Top*
%FSLAX46Y46*%
G04 Gerber Fmt 4.6, Leading zero omitted, Abs format (unit mm)*
G04 Created by KiCad (PCBNEW 4.0.1-2.fc23-product) date Fri 29 Jan 2016 03:23:31 PM EST*
%MOMM*%
G01*
G04 APERTURE LIST*
%ADD10C,0.100000*%
%ADD11C,0.150000*%
G04 APERTURE END LIST*
D10*
D11*
X152556100Y-112488600D02*
X153826100Y-112488600D01*
X152556100Y-105138600D02*
X153826100Y-105138600D01*
X164766100Y-105138600D02*
X163496100Y-105138600D01*
X164766100Y-112488600D02*
X163496100Y-112488600D01*
X152556100Y-112488600D02*
X152556100Y-105138600D01*
X164766100Y-112488600D02*
X164766100Y-105138600D01*
X153826100Y-112488600D02*
X153826100Y-113423600D01*
X172700000Y-117360000D02*
X172700000Y-121360000D01*
X170200000Y-117360000D02*
X170200000Y-121360000D01*
X179050000Y-117360000D02*
X179050000Y-121360000D01*
X176550000Y-117360000D02*
X176550000Y-121360000D01*
X133070600Y-90342720D02*
X133070600Y-99344480D01*
X129570480Y-90342720D02*
X129570480Y-99344480D01*
X129570480Y-99344480D02*
X144071340Y-99344480D01*
X144071340Y-99344480D02*
X144071340Y-90342720D01*
X144071340Y-90342720D02*
X129570480Y-90342720D01*
X170662080Y-101056440D02*
X169265080Y-101056440D01*
X175107080Y-101056440D02*
X176631080Y-101056440D01*
X174726080Y-101818440D02*
X174726080Y-100294440D01*
X174980080Y-101818440D02*
X174980080Y-100294440D01*
X175234080Y-101056440D02*
X175234080Y-100294440D01*
X175234080Y-100294440D02*
X170662080Y-100294440D01*
X170662080Y-100294440D02*
X170662080Y-101818440D01*
X170662080Y-101818440D02*
X175234080Y-101818440D01*
X175234080Y-101818440D02*
X175234080Y-101056440D01*
X139611100Y-107543600D02*
X139611100Y-112623600D01*
X139611100Y-112623600D02*
X142151100Y-112623600D01*
X142151100Y-112623600D02*
X142151100Y-107543600D01*
X142431100Y-104723600D02*
X142431100Y-106273600D01*
X142151100Y-107543600D02*
X139611100Y-107543600D01*
X139331100Y-106273600D02*
X139331100Y-104723600D01*
X139331100Y-104723600D02*
X142431100Y-104723600D01*
X154686000Y-92202000D02*
X154686000Y-93345000D01*
X157734000Y-92202000D02*
X157734000Y-93345000D01*
X161544000Y-93345000D02*
X161544000Y-97028000D01*
X161544000Y-97028000D02*
X150876000Y-97028000D01*
X150876000Y-97028000D02*
X150876000Y-93345000D01*
X161544000Y-92202000D02*
X161544000Y-93345000D01*
X161544000Y-93345000D02*
X150876000Y-93345000D01*
X150876000Y-93345000D02*
X150876000Y-92202000D01*
X156210000Y-92202000D02*
X150876000Y-92202000D01*
X156210000Y-92202000D02*
X161544000Y-92202000D01*
X174371000Y-108077000D02*
X174371000Y-109220000D01*
X177419000Y-108077000D02*
X177419000Y-109220000D01*
X181229000Y-109220000D02*
X181229000Y-112903000D01*
X181229000Y-112903000D02*
X170561000Y-112903000D01*
X170561000Y-112903000D02*
X170561000Y-109220000D01*
X181229000Y-108077000D02*
X181229000Y-109220000D01*
X181229000Y-109220000D02*
X170561000Y-109220000D01*
X170561000Y-109220000D02*
X170561000Y-108077000D01*
X175895000Y-108077000D02*
X170561000Y-108077000D01*
X175895000Y-108077000D02*
X181229000Y-108077000D01*
X149083481Y-113385505D02*
X149893005Y-113385505D01*
X149988243Y-113337886D01*
X150035862Y-113290267D01*
X150083481Y-113195029D01*
X150083481Y-113004552D01*
X150035862Y-112909314D01*
X149988243Y-112861695D01*
X149893005Y-112814076D01*
X149083481Y-112814076D01*
X150083481Y-111814076D02*
X150083481Y-112385505D01*
X150083481Y-112099791D02*
X149083481Y-112099791D01*
X149226338Y-112195029D01*
X149321576Y-112290267D01*
X149369195Y-112385505D01*
X174307143Y-119526666D02*
X174354762Y-119574285D01*
X174402381Y-119717142D01*
X174402381Y-119812380D01*
X174354762Y-119955238D01*
X174259524Y-120050476D01*
X174164286Y-120098095D01*
X173973810Y-120145714D01*
X173830952Y-120145714D01*
X173640476Y-120098095D01*
X173545238Y-120050476D01*
X173450000Y-119955238D01*
X173402381Y-119812380D01*
X173402381Y-119717142D01*
X173450000Y-119574285D01*
X173497619Y-119526666D01*
X174402381Y-118574285D02*
X174402381Y-119145714D01*
X174402381Y-118860000D02*
X173402381Y-118860000D01*
X173545238Y-118955238D01*
X173640476Y-119050476D01*
X173688095Y-119145714D01*
X180657143Y-119526666D02*
X180704762Y-119574285D01*
X180752381Y-119717142D01*
X180752381Y-119812380D01*
X180704762Y-119955238D01*
X180609524Y-120050476D01*
X180514286Y-120098095D01*
X180323810Y-120145714D01*
X180180952Y-120145714D01*
X179990476Y-120098095D01*
X179895238Y-120050476D01*
X179800000Y-119955238D01*
X179752381Y-119812380D01*
X179752381Y-119717142D01*
X179800000Y-119574285D01*
X179847619Y-119526666D01*
X179847619Y-119145714D02*
X179800000Y-119098095D01*
X179752381Y-119002857D01*
X179752381Y-118764761D01*
X179800000Y-118669523D01*
X179847619Y-118621904D01*
X179942857Y-118574285D01*
X180038095Y-118574285D01*
X180180952Y-118621904D01*
X180752381Y-119193333D01*
X180752381Y-118574285D01*
X147527283Y-96057885D02*
X147574902Y-96105504D01*
X147622521Y-96248361D01*
X147622521Y-96343599D01*
X147574902Y-96486457D01*
X147479664Y-96581695D01*
X147384426Y-96629314D01*
X147193950Y-96676933D01*
X147051092Y-96676933D01*
X146860616Y-96629314D01*
X146765378Y-96581695D01*
X146670140Y-96486457D01*
X146622521Y-96343599D01*
X146622521Y-96248361D01*
X146670140Y-96105504D01*
X146717759Y-96057885D01*
X146622521Y-95438838D02*
X146622521Y-95248361D01*
X146670140Y-95153123D01*
X146765378Y-95057885D01*
X146955854Y-95010266D01*
X147289188Y-95010266D01*
X147479664Y-95057885D01*
X147574902Y-95153123D01*
X147622521Y-95248361D01*
X147622521Y-95438838D01*
X147574902Y-95534076D01*
X147479664Y-95629314D01*
X147289188Y-95676933D01*
X146955854Y-95676933D01*
X146765378Y-95629314D01*
X146670140Y-95534076D01*
X146622521Y-95438838D01*
X147622521Y-94581695D02*
X146622521Y-94581695D01*
X147622521Y-94010266D01*
X146622521Y-94010266D01*
X147622521Y-93010266D02*
X147622521Y-93581695D01*
X147622521Y-93295981D02*
X146622521Y-93295981D01*
X146765378Y-93391219D01*
X146860616Y-93486457D01*
X146908235Y-93581695D01*
X171859985Y-98968821D02*
X171859985Y-97968821D01*
X172098080Y-97968821D01*
X172240938Y-98016440D01*
X172336176Y-98111678D01*
X172383795Y-98206916D01*
X172431414Y-98397392D01*
X172431414Y-98540250D01*
X172383795Y-98730726D01*
X172336176Y-98825964D01*
X172240938Y-98921202D01*
X172098080Y-98968821D01*
X171859985Y-98968821D01*
X173383795Y-98968821D02*
X172812366Y-98968821D01*
X173098080Y-98968821D02*
X173098080Y-97968821D01*
X173002842Y-98111678D01*
X172907604Y-98206916D01*
X172812366Y-98254535D01*
X140143005Y-101625981D02*
X140143005Y-100625981D01*
X140523958Y-100625981D01*
X140619196Y-100673600D01*
X140666815Y-100721219D01*
X140714434Y-100816457D01*
X140714434Y-100959314D01*
X140666815Y-101054552D01*
X140619196Y-101102171D01*
X140523958Y-101149790D01*
X140143005Y-101149790D01*
X141666815Y-101625981D02*
X141095386Y-101625981D01*
X141381100Y-101625981D02*
X141381100Y-100625981D01*
X141285862Y-100768838D01*
X141190624Y-100864076D01*
X141095386Y-100911695D01*
X167991281Y-85948781D02*
X167991281Y-84948781D01*
X168372234Y-84948781D01*
X168467472Y-84996400D01*
X168515091Y-85044019D01*
X168562710Y-85139257D01*
X168562710Y-85282114D01*
X168515091Y-85377352D01*
X168467472Y-85424971D01*
X168372234Y-85472590D01*
X167991281Y-85472590D01*
X168848424Y-84948781D02*
X169419853Y-84948781D01*
X169134138Y-85948781D02*
X169134138Y-84948781D01*
X169610329Y-84948781D02*
X169943662Y-85948781D01*
X170276996Y-84948781D01*
X170800805Y-84948781D02*
X170896044Y-84948781D01*
X170991282Y-84996400D01*
X171038901Y-85044019D01*
X171086520Y-85139257D01*
X171134139Y-85329733D01*
X171134139Y-85567829D01*
X171086520Y-85758305D01*
X171038901Y-85853543D01*
X170991282Y-85901162D01*
X170896044Y-85948781D01*
X170800805Y-85948781D01*
X170705567Y-85901162D01*
X170657948Y-85853543D01*
X170610329Y-85758305D01*
X170562710Y-85567829D01*
X170562710Y-85329733D01*
X170610329Y-85139257D01*
X170657948Y-85044019D01*
X170705567Y-84996400D01*
X170800805Y-84948781D01*
X171610329Y-85948781D02*
X171800805Y-85948781D01*
X171896044Y-85901162D01*
X171943663Y-85853543D01*
X172038901Y-85710686D01*
X172086520Y-85520210D01*
X172086520Y-85139257D01*
X172038901Y-85044019D01*
X171991282Y-84996400D01*
X171896044Y-84948781D01*
X171705567Y-84948781D01*
X171610329Y-84996400D01*
X171562710Y-85044019D01*
X171515091Y-85139257D01*
X171515091Y-85377352D01*
X171562710Y-85472590D01*
X171610329Y-85520210D01*
X171705567Y-85567829D01*
X171896044Y-85567829D01*
X171991282Y-85520210D01*
X172038901Y-85472590D01*
X172086520Y-85377352D01*
X172467472Y-85663067D02*
X172943663Y-85663067D01*
X172372234Y-85948781D02*
X172705567Y-84948781D01*
X173038901Y-85948781D01*
X173372234Y-85567829D02*
X174134139Y-85567829D01*
X174562710Y-85044019D02*
X174610329Y-84996400D01*
X174705567Y-84948781D01*
X174943663Y-84948781D01*
X175038901Y-84996400D01*
X175086520Y-85044019D01*
X175134139Y-85139257D01*
X175134139Y-85234495D01*
X175086520Y-85377352D01*
X174515091Y-85948781D01*
X175134139Y-85948781D01*
X168062709Y-97378781D02*
X168062709Y-96378781D01*
X168443662Y-96378781D01*
X168538900Y-96426400D01*
X168586519Y-96474019D01*
X168634138Y-96569257D01*
X168634138Y-96712114D01*
X168586519Y-96807352D01*
X168538900Y-96854971D01*
X168443662Y-96902590D01*
X168062709Y-96902590D01*
X169253185Y-96378781D02*
X169443662Y-96378781D01*
X169538900Y-96426400D01*
X169634138Y-96521638D01*
X169681757Y-96712114D01*
X169681757Y-97045448D01*
X169634138Y-97235924D01*
X169538900Y-97331162D01*
X169443662Y-97378781D01*
X169253185Y-97378781D01*
X169157947Y-97331162D01*
X169062709Y-97235924D01*
X169015090Y-97045448D01*
X169015090Y-96712114D01*
X169062709Y-96521638D01*
X169157947Y-96426400D01*
X169253185Y-96378781D01*
X169967471Y-96378781D02*
X170538900Y-96378781D01*
X170253185Y-97378781D02*
X170253185Y-96378781D01*
X172157948Y-97378781D02*
X171586519Y-97378781D01*
X171872233Y-97378781D02*
X171872233Y-96378781D01*
X171776995Y-96521638D01*
X171681757Y-96616876D01*
X171586519Y-96664495D01*
X172776995Y-96378781D02*
X172872234Y-96378781D01*
X172967472Y-96426400D01*
X173015091Y-96474019D01*
X173062710Y-96569257D01*
X173110329Y-96759733D01*
X173110329Y-96997829D01*
X173062710Y-97188305D01*
X173015091Y-97283543D01*
X172967472Y-97331162D01*
X172872234Y-97378781D01*
X172776995Y-97378781D01*
X172681757Y-97331162D01*
X172634138Y-97283543D01*
X172586519Y-97188305D01*
X172538900Y-96997829D01*
X172538900Y-96759733D01*
X172586519Y-96569257D01*
X172634138Y-96474019D01*
X172681757Y-96426400D01*
X172776995Y-96378781D01*
X173729376Y-96378781D02*
X173824615Y-96378781D01*
X173919853Y-96426400D01*
X173967472Y-96474019D01*
X174015091Y-96569257D01*
X174062710Y-96759733D01*
X174062710Y-96997829D01*
X174015091Y-97188305D01*
X173967472Y-97283543D01*
X173919853Y-97331162D01*
X173824615Y-97378781D01*
X173729376Y-97378781D01*
X173634138Y-97331162D01*
X173586519Y-97283543D01*
X173538900Y-97188305D01*
X173491281Y-96997829D01*
X173491281Y-96759733D01*
X173538900Y-96569257D01*
X173586519Y-96474019D01*
X173634138Y-96426400D01*
X173729376Y-96378781D01*
X174491281Y-97378781D02*
X174491281Y-96378781D01*
X175062710Y-97378781D02*
X174634138Y-96807352D01*
X175062710Y-96378781D02*
X174491281Y-96950210D01*
X156043334Y-90622381D02*
X155710000Y-90146190D01*
X155471905Y-90622381D02*
X155471905Y-89622381D01*
X155852858Y-89622381D01*
X155948096Y-89670000D01*
X155995715Y-89717619D01*
X156043334Y-89812857D01*
X156043334Y-89955714D01*
X155995715Y-90050952D01*
X155948096Y-90098571D01*
X155852858Y-90146190D01*
X155471905Y-90146190D01*
X156995715Y-90622381D02*
X156424286Y-90622381D01*
X156710000Y-90622381D02*
X156710000Y-89622381D01*
X156614762Y-89765238D01*
X156519524Y-89860476D01*
X156424286Y-89908095D01*
X175728334Y-106497381D02*
X175395000Y-106021190D01*
X175156905Y-106497381D02*
X175156905Y-105497381D01*
X175537858Y-105497381D01*
X175633096Y-105545000D01*
X175680715Y-105592619D01*
X175728334Y-105687857D01*
X175728334Y-105830714D01*
X175680715Y-105925952D01*
X175633096Y-105973571D01*
X175537858Y-106021190D01*
X175156905Y-106021190D01*
X176109286Y-105592619D02*
X176156905Y-105545000D01*
X176252143Y-105497381D01*
X176490239Y-105497381D01*
X176585477Y-105545000D01*
X176633096Y-105592619D01*
X176680715Y-105687857D01*
X176680715Y-105783095D01*
X176633096Y-105925952D01*
X176061667Y-106497381D01*
X176680715Y-106497381D01*
M02*
